<svg width="91" height="34" viewBox="0 0 91 34" fill="none" xmlns="http://www.w3.org/2000/svg">
<g clip-path="url(#clip0_2_14)" filter="url(#filter0_d_2_14)">
<path d="M47.227 6.36977C47.227 7.28343 46.4839 8.01913 45.5616 8.01913C44.6394 8.01913 43.8968 7.28343 43.8968 6.36977C43.8968 5.45611 44.614 4.72042 45.5616 4.72042C46.51 4.74577 47.227 5.48172 47.227 6.36977ZM40.3618 9.69434V10.1005C40.3618 10.1005 39.568 9.08489 37.8773 9.08489C35.0854 9.08489 32.9077 11.1913 32.9077 14.1095C32.9077 17.0026 35.0598 19.1341 37.8773 19.1341C39.5936 19.1341 40.3618 18.0937 40.3618 18.0937V18.525C40.3618 18.728 40.5158 18.8799 40.7205 18.8799H42.7951V9.3379H40.7205C40.5158 9.33867 40.3618 9.51663 40.3618 9.69434ZM40.3618 15.8098C39.9779 16.3683 39.2092 16.8505 38.2872 16.8505C36.6479 16.8505 35.3925 15.8354 35.3925 14.1095C35.3925 12.3839 36.6479 11.3688 38.2872 11.3688C39.1839 11.3688 40.0035 11.8763 40.3618 12.4092V15.8098ZM44.3323 9.33866H46.7912V18.8806H44.3323V9.33866ZM81.0653 9.08465C79.3745 9.08465 78.5802 10.1002 78.5802 10.1002V4.74577H76.1213V18.8806H78.1964C78.4014 18.8806 78.5546 18.7029 78.5546 18.5252V18.094C78.5546 18.094 79.349 19.1344 81.0392 19.1344C83.8315 19.1344 86.0087 17.0034 86.0087 14.1103C86.0087 11.2172 83.8315 9.08465 81.0653 9.08465ZM80.6553 16.8249C79.7072 16.8249 78.9646 16.3432 78.5802 15.7845V12.3839C78.9646 11.8763 79.7842 11.3434 80.6553 11.3434C82.2946 11.3434 83.5498 12.3585 83.5498 14.0842C83.5498 15.8098 82.2949 16.8249 80.6553 16.8249ZM74.8408 13.2217V18.906H72.3813V13.5006C72.3813 11.9275 71.869 11.2927 70.4867 11.2927C69.7441 11.2927 68.9753 11.6735 68.4878 12.232V18.8809H66.0294V9.33892H67.9755C68.1805 9.33892 68.3343 9.51663 68.3343 9.69434V10.1005C69.0516 9.36427 69.9992 9.08489 70.9468 9.08489C72.0228 9.08489 72.9195 9.38987 73.6368 9.99881C74.5074 10.7094 74.8408 11.6228 74.8408 13.2217ZM60.0601 9.08465C58.3699 9.08465 57.5756 10.1002 57.5756 10.1002V4.74577H55.1166V18.8806H57.1912C57.3962 18.8806 57.55 18.7029 57.55 18.5252V18.094C57.55 18.094 58.3443 19.1344 60.0345 19.1344C62.8269 19.1344 65.0041 17.0034 65.0041 14.1103C65.0296 11.2169 62.8525 9.08465 60.0601 9.08465ZM59.6501 16.8249C58.7025 16.8249 57.9599 16.3432 57.5756 15.7845V12.3839C57.9599 11.8763 58.7796 11.3434 59.6501 11.3434C61.2899 11.3434 62.5449 12.3585 62.5449 14.0842C62.5449 15.8098 61.2899 16.8249 59.6501 16.8249ZM52.9904 9.08465C53.733 9.08465 54.1173 9.21191 54.1173 9.21191V11.4702C54.1173 11.4702 52.0681 10.7849 50.7876 12.2317V18.9057H48.3282V9.33866H50.4032C50.6082 9.33866 50.7615 9.51638 50.7615 9.69409V10.1002C51.2231 9.56708 52.2222 9.08465 52.9904 9.08465ZM27.4519 18.0177C27.324 17.7132 27.1958 17.3834 27.0678 17.104C26.8626 16.6474 26.6576 16.2157 26.4788 15.8098L26.4532 15.7845C24.6854 11.9777 22.7902 8.12079 20.7919 4.31455L20.7152 4.16193C20.505 3.76707 20.3002 3.36945 20.1007 2.96915C19.8443 2.51207 19.5884 2.03039 19.1785 1.57331C18.3588 0.558245 17.1804 -0.000244141 15.9255 -0.000244141C14.6445 -0.000244141 13.4919 0.558248 12.6469 1.52236C12.2626 1.97893 11.9806 2.46112 11.7247 2.9182C11.5247 3.31825 11.3199 3.71586 11.1103 4.11098L11.0332 4.26359C9.06076 8.06983 7.13973 11.927 5.37224 15.7335L5.34639 15.784C5.16726 16.1906 4.96203 16.6218 4.75706 17.0782C4.62911 17.3575 4.50116 17.662 4.37321 17.9918C4.04003 18.9306 3.93741 19.8189 4.06587 20.7328C4.34761 22.6362 5.62813 24.2343 7.39588 24.9454C8.06198 25.2248 8.75368 25.3515 9.47071 25.3515C9.67568 25.3515 9.93159 25.3262 10.1368 25.3006C10.9823 25.1992 11.8531 24.9203 12.6986 24.4381C13.7488 23.8543 14.7478 23.0172 15.8748 21.7991C17.0018 23.0172 18.0264 23.8543 19.051 24.4381C19.8968 24.9203 20.7674 25.1992 21.6126 25.3006C21.8176 25.3264 22.074 25.3515 22.2789 25.3515C22.9962 25.3515 23.7133 25.2248 24.3535 24.9454C26.1469 24.2343 27.4018 22.6108 27.6838 20.7328C27.8872 19.8447 27.7849 18.9569 27.4519 18.0177ZM15.8997 19.3372C14.5163 17.6115 13.6196 15.9875 13.3125 14.6176C13.1846 14.0337 13.1587 13.5262 13.2357 13.0694C13.2867 12.6632 13.4407 12.3078 13.6457 12.0033C14.1324 11.3186 14.9521 10.8869 15.8999 10.8869C16.848 10.8869 17.6932 11.293 18.1544 12.0033C18.3594 12.3078 18.5129 12.6635 18.5646 13.0694C18.6411 13.5264 18.6155 14.0591 18.4876 14.6176C18.1792 15.9622 17.2825 17.5864 15.8997 19.3372ZM26.1197 20.53C25.9406 21.8495 25.0439 22.9918 23.789 23.4994C23.1743 23.7529 22.508 23.8292 21.8424 23.7529C21.2021 23.6766 20.5614 23.4735 19.8958 23.0932C18.9735 22.5852 18.0515 21.7991 16.9755 20.6314C18.6659 18.5762 19.6905 16.6979 20.0749 15.0234C20.2543 14.2365 20.2801 13.5262 20.2028 12.866C20.1007 12.2318 19.8699 11.6479 19.5114 11.1404C18.7168 9.99805 17.3846 9.33866 15.8994 9.33866C14.4142 9.33866 13.0819 10.0239 12.2879 11.1404C11.9294 11.6479 11.6986 12.2318 11.5962 12.866C11.4938 13.5262 11.5192 14.2619 11.7241 15.0234C12.1083 16.6979 13.1585 18.6013 14.8233 20.6567C13.7731 21.8242 12.8253 22.6111 11.903 23.1186C11.2369 23.4994 10.5969 23.7024 9.95666 23.7782C9.26522 23.8546 8.59886 23.7529 8.00978 23.5247C6.75486 23.0172 5.85819 21.8749 5.67906 20.5553C5.60229 19.921 5.65321 19.2868 5.90962 18.5762C5.98614 18.3221 6.1146 18.0686 6.24255 17.7642C6.42193 17.358 6.6264 16.9263 6.83163 16.4951L6.85748 16.4446C8.62471 12.6632 10.5202 8.80603 12.4926 5.05049L12.5694 4.89788C12.7746 4.51761 12.9796 4.11148 13.1843 3.73071C13.3893 3.32458 13.6196 2.9438 13.9016 2.61373C14.4395 2.0053 15.1565 1.67497 15.9508 1.67497C16.7451 1.67497 17.4622 2.0053 18.0001 2.61373C18.2821 2.94456 18.5124 3.32534 18.7173 3.73071C18.9226 4.11148 19.1276 4.51761 19.332 4.89788L19.409 5.05049C21.3514 8.82163 23.2217 12.6288 25.0189 16.47V16.4953C25.2241 16.902 25.4032 17.3583 25.6082 17.7649C25.7361 18.0689 25.8643 18.3224 25.9411 18.5764C26.1456 19.2356 26.2223 19.8703 26.1197 20.53Z" fill="#FF5A5F"/>
</g>
<defs>
<filter id="filter0_d_2_14" x="0" y="0" width="90.0204" height="33.3518" filterUnits="userSpaceOnUse" color-interpolation-filters="sRGB">
<feFlood flood-opacity="0" result="BackgroundImageFix"/>
<feColorMatrix in="SourceAlpha" type="matrix" values="0 0 0 0 0 0 0 0 0 0 0 0 0 0 0 0 0 0 127 0" result="hardAlpha"/>
<feOffset dy="4"/>
<feGaussianBlur stdDeviation="2"/>
<feComposite in2="hardAlpha" operator="out"/>
<feColorMatrix type="matrix" values="0 0 0 0 0 0 0 0 0 0 0 0 0 0 0 0 0 0 0.25 0"/>
<feBlend mode="normal" in2="BackgroundImageFix" result="effect1_dropShadow_2_14"/>
<feBlend mode="normal" in="SourceGraphic" in2="effect1_dropShadow_2_14" result="shape"/>
</filter>
<clipPath id="clip0_2_14">
<rect width="82.0204" height="25.3518" fill="white" transform="translate(4)"/>
</clipPath>
</defs>
</svg>
